<svg width="19" height="18" viewBox="0 0 19 18" fill="none" xmlns="http://www.w3.org/2000/svg">
<path d="M13.516 9.83061C12.226 10.2406 10.886 9.9106 10.896 8.1806C10.896 5.5406 17.086 3.3306 17.946 1.0306C18.156 0.460602 18.176 -0.0193967 17.896 0.000603322C17.696 0.0106033 17.856 0.300599 17.416 0.730599C14.856 3.3006 10.556 3.29061 7.25603 4.77061C5.09603 5.74061 -1.24398 8.7206 0.216025 15.3706C0.286025 15.6906 0.476022 16.7406 0.666022 16.7406C0.886022 16.7406 0.886023 16.1106 0.886023 15.3506C0.836023 11.3906 5.52602 10.2906 7.05602 7.7006C7.23602 7.3906 7.55602 6.96061 7.62602 7.16061C7.66602 7.26061 7.63603 7.4006 7.57603 7.6806C7.09603 9.8106 4.87603 11.1706 5.50603 12.6906C6.32603 14.6606 8.67603 13.1906 9.40603 11.9206C9.59603 11.5706 9.70603 11.3506 9.83603 11.3906C9.93603 11.4206 9.92603 11.8206 9.86603 12.1806C9.47603 14.4706 8.95602 15.7506 7.27602 17.0606C6.73602 17.4806 5.89603 17.5606 6.00603 17.8806C6.03603 17.9606 6.39603 17.9506 6.68603 17.9206C11.146 17.6306 14.876 12.3806 15.866 8.94061C15.966 8.70061 15.996 8.4706 15.896 8.3906C15.766 8.2906 15.566 8.5206 15.366 8.7006C14.856 9.1606 14.156 9.63061 13.516 9.83061Z" fill="white"/>
</svg>
